<svg width="150" height="92" viewBox="0 0 150 92" fill="none" xmlns="http://www.w3.org/2000/svg">
<rect x="0.5" y="0.5" width="149" height="91" rx="13.5" fill="white"/>
<rect x="0.5" y="0.5" width="149" height="91" rx="13.5" stroke="#F8FAFC"/>
<path d="M75 19C75 19 82 27 82 32C82 33.8565 81.2625 35.637 79.9497 36.9497C78.637 38.2625 76.8565 39 75 39C73.1435 39 71.363 38.2625 70.0503 36.9497C68.7375 35.637 68 33.8565 68 32C68 27 75 19 75 19Z" stroke="#141827" stroke-width="2" stroke-linecap="round" stroke-linejoin="round"/>
<path d="M26.7129 63.6992H25.252C25.2103 63.4596 25.1335 63.2474 25.0215 63.0625C24.9095 62.875 24.7702 62.7161 24.6035 62.5859C24.4368 62.4557 24.2467 62.3581 24.0332 62.293C23.8223 62.2253 23.5944 62.1914 23.3496 62.1914C22.9147 62.1914 22.5293 62.3008 22.1934 62.5195C21.8574 62.7357 21.5944 63.0534 21.4043 63.4727C21.2142 63.8893 21.1191 64.3984 21.1191 65C21.1191 65.612 21.2142 66.1276 21.4043 66.5469C21.597 66.9635 21.86 67.2786 22.1934 67.4922C22.5293 67.7031 22.9134 67.8086 23.3457 67.8086C23.5853 67.8086 23.8092 67.7773 24.0176 67.7148C24.2285 67.6497 24.4173 67.5547 24.584 67.4297C24.7533 67.3047 24.8952 67.151 25.0098 66.9687C25.127 66.7865 25.2077 66.5781 25.252 66.3437L26.7129 66.3516C26.6582 66.7318 26.5397 67.0885 26.3574 67.4219C26.1777 67.7552 25.9421 68.0495 25.6504 68.3047C25.3587 68.5573 25.0176 68.7552 24.627 68.8984C24.2363 69.0391 23.8027 69.1094 23.3262 69.1094C22.623 69.1094 21.9954 68.9466 21.4434 68.6211C20.8913 68.2956 20.4564 67.8255 20.1387 67.2109C19.821 66.5964 19.6621 65.8594 19.6621 65C19.6621 64.138 19.8223 63.401 20.1426 62.7891C20.4629 62.1745 20.8991 61.7044 21.4512 61.3789C22.0033 61.0534 22.6283 60.8906 23.3262 60.8906C23.7715 60.8906 24.1855 60.9531 24.5684 61.0781C24.9512 61.2031 25.2923 61.3867 25.5918 61.6289C25.8913 61.8685 26.1374 62.1628 26.3301 62.5117C26.5254 62.8581 26.653 63.2539 26.7129 63.6992ZM29.7041 69.1211C29.3239 69.1211 28.9814 69.0534 28.6768 68.918C28.3747 68.7799 28.1351 68.5768 27.958 68.3086C27.7835 68.0404 27.6963 67.7096 27.6963 67.3164C27.6963 66.9779 27.7588 66.6979 27.8838 66.4766C28.0088 66.2552 28.1794 66.0781 28.3955 65.9453C28.6117 65.8125 28.8551 65.7122 29.126 65.6445C29.3994 65.5742 29.682 65.5234 29.9736 65.4922C30.3252 65.4557 30.6104 65.4232 30.8291 65.3945C31.0479 65.3633 31.2067 65.3164 31.3057 65.2539C31.4072 65.1888 31.458 65.0885 31.458 64.9531V64.9297C31.458 64.6354 31.3708 64.4076 31.1963 64.2461C31.0218 64.0846 30.7705 64.0039 30.4424 64.0039C30.096 64.0039 29.8213 64.0794 29.6182 64.2305C29.4176 64.3815 29.2822 64.5599 29.2119 64.7656L27.8916 64.5781C27.9958 64.2135 28.1676 63.9089 28.4072 63.6641C28.6468 63.4167 28.9398 63.2318 29.2861 63.1094C29.6325 62.9844 30.0153 62.9219 30.4346 62.9219C30.7236 62.9219 31.0114 62.9557 31.2979 63.0234C31.5843 63.0911 31.846 63.2031 32.083 63.3594C32.32 63.513 32.5101 63.7227 32.6533 63.9883C32.7992 64.2539 32.8721 64.5859 32.8721 64.9844V69H31.5127V68.1758H31.4658C31.3799 68.3424 31.2588 68.4987 31.1025 68.6445C30.9489 68.7878 30.7549 68.9036 30.5205 68.9922C30.2887 69.0781 30.0166 69.1211 29.7041 69.1211ZM30.0713 68.082C30.3551 68.082 30.6012 68.026 30.8096 67.9141C31.0179 67.7995 31.1781 67.6484 31.29 67.4609C31.4046 67.2734 31.4619 67.069 31.4619 66.8477V66.1406C31.4176 66.1771 31.3421 66.2109 31.2354 66.2422C31.1312 66.2734 31.014 66.3008 30.8838 66.3242C30.7536 66.3477 30.6247 66.3685 30.4971 66.3867C30.3695 66.4049 30.2588 66.4206 30.165 66.4336C29.9541 66.4622 29.7653 66.5091 29.5986 66.5742C29.432 66.6393 29.3005 66.7305 29.2041 66.8477C29.1077 66.9622 29.0596 67.1107 29.0596 67.293C29.0596 67.5534 29.1546 67.75 29.3447 67.8828C29.5348 68.0156 29.777 68.082 30.0713 68.082ZM37.29 63V64.0937H33.8408V63H37.29ZM34.6924 61.5625H36.1064V67.1953C36.1064 67.3854 36.1351 67.5313 36.1924 67.6328C36.2523 67.7318 36.3304 67.7995 36.4268 67.8359C36.5231 67.8724 36.6299 67.8906 36.7471 67.8906C36.8356 67.8906 36.9163 67.8841 36.9893 67.8711C37.0648 67.8581 37.1221 67.8464 37.1611 67.8359L37.3994 68.9414C37.3239 68.9674 37.2158 68.9961 37.0752 69.0273C36.9372 69.0586 36.7679 69.0768 36.5674 69.082C36.2132 69.0924 35.8942 69.0391 35.6104 68.9219C35.3265 68.8021 35.1012 68.6172 34.9346 68.3672C34.7705 68.1172 34.6898 67.8047 34.6924 67.4297V61.5625ZM41.0645 69.1172C40.4629 69.1172 39.9434 68.9922 39.5059 68.7422C39.071 68.4896 38.7363 68.1328 38.502 67.6719C38.2676 67.2083 38.1504 66.6628 38.1504 66.0352C38.1504 65.418 38.2676 64.8763 38.502 64.4102C38.7389 63.9414 39.0697 63.5768 39.4941 63.3164C39.9186 63.0534 40.4173 62.9219 40.9902 62.9219C41.36 62.9219 41.709 62.9818 42.0371 63.1016C42.3678 63.2187 42.6595 63.401 42.9121 63.6484C43.1673 63.8958 43.3678 64.2109 43.5137 64.5937C43.6595 64.974 43.7324 65.4271 43.7324 65.9531V66.3867H38.8145V65.4336H42.377C42.3743 65.1628 42.3158 64.9219 42.2012 64.7109C42.0866 64.4974 41.9264 64.3294 41.7207 64.207C41.5176 64.0846 41.2806 64.0234 41.0098 64.0234C40.7207 64.0234 40.4668 64.0937 40.248 64.2344C40.0293 64.3724 39.8587 64.5547 39.7363 64.7812C39.6165 65.0052 39.5553 65.2513 39.5527 65.5195V66.3516C39.5527 66.7005 39.6165 67 39.7441 67.25C39.8717 67.4974 40.0501 67.6875 40.2793 67.8203C40.5085 67.9505 40.7767 68.0156 41.084 68.0156C41.2897 68.0156 41.4759 67.987 41.6426 67.9297C41.8092 67.8698 41.9538 67.7826 42.0762 67.668C42.1986 67.5534 42.291 67.4115 42.3535 67.2422L43.6738 67.3906C43.5905 67.7396 43.4316 68.0443 43.1973 68.3047C42.9655 68.5625 42.6686 68.763 42.3066 68.9062C41.9447 69.0469 41.5306 69.1172 41.0645 69.1172ZM47.5381 71.375C47.0303 71.375 46.5941 71.306 46.2295 71.168C45.8649 71.0326 45.5719 70.8503 45.3506 70.6211C45.1292 70.3919 44.9756 70.138 44.8896 69.8594L46.1631 69.5508C46.2204 69.668 46.3037 69.7839 46.4131 69.8984C46.5225 70.0156 46.6696 70.112 46.8545 70.1875C47.042 70.2656 47.2777 70.3047 47.5615 70.3047C47.9626 70.3047 48.2946 70.207 48.5576 70.0117C48.8206 69.819 48.9521 69.5013 48.9521 69.0586V67.9219H48.8818C48.8089 68.0677 48.7021 68.2174 48.5615 68.3711C48.4235 68.5247 48.2399 68.6536 48.0107 68.7578C47.7842 68.862 47.499 68.9141 47.1553 68.9141C46.6943 68.9141 46.2764 68.806 45.9014 68.5898C45.529 68.3711 45.2321 68.0456 45.0107 67.6133C44.792 67.1784 44.6826 66.6341 44.6826 65.9805C44.6826 65.3216 44.792 64.7656 45.0107 64.3125C45.2321 63.8568 45.5303 63.5117 45.9053 63.2773C46.2803 63.0404 46.6982 62.9219 47.1592 62.9219C47.5107 62.9219 47.7998 62.9818 48.0264 63.1016C48.2555 63.2187 48.4378 63.3607 48.5732 63.5273C48.7087 63.6914 48.8115 63.8464 48.8818 63.9922H48.96V63H50.3545V69.0977C50.3545 69.6107 50.2321 70.0352 49.9873 70.3711C49.7425 70.707 49.4079 70.9583 48.9834 71.125C48.5589 71.2917 48.0771 71.375 47.5381 71.375ZM47.5498 67.8047C47.8493 67.8047 48.1045 67.7318 48.3154 67.5859C48.5264 67.4401 48.6865 67.2305 48.7959 66.957C48.9053 66.6836 48.96 66.3555 48.96 65.9727C48.96 65.5951 48.9053 65.2643 48.7959 64.9805C48.6891 64.6966 48.5303 64.4766 48.3193 64.3203C48.111 64.1615 47.8545 64.082 47.5498 64.082C47.2347 64.082 46.9717 64.1641 46.7607 64.3281C46.5498 64.4922 46.391 64.7174 46.2842 65.0039C46.1774 65.2878 46.124 65.6107 46.124 65.9727C46.124 66.3398 46.1774 66.6615 46.2842 66.9375C46.3936 67.2109 46.5537 67.4245 46.7646 67.5781C46.9782 67.7292 47.2399 67.8047 47.5498 67.8047ZM54.4209 69.1172C53.835 69.1172 53.3271 68.9883 52.8975 68.7305C52.4678 68.4727 52.1344 68.112 51.8975 67.6484C51.6631 67.1849 51.5459 66.6432 51.5459 66.0234C51.5459 65.4036 51.6631 64.8607 51.8975 64.3945C52.1344 63.9284 52.4678 63.5664 52.8975 63.3086C53.3271 63.0508 53.835 62.9219 54.4209 62.9219C55.0068 62.9219 55.5146 63.0508 55.9443 63.3086C56.374 63.5664 56.7061 63.9284 56.9404 64.3945C57.1774 64.8607 57.2959 65.4036 57.2959 66.0234C57.2959 66.6432 57.1774 67.1849 56.9404 67.6484C56.7061 68.112 56.374 68.4727 55.9443 68.7305C55.5146 68.9883 55.0068 69.1172 54.4209 69.1172ZM54.4287 67.9844C54.7464 67.9844 55.012 67.8971 55.2256 67.7227C55.4391 67.5456 55.598 67.3086 55.7021 67.0117C55.8089 66.7148 55.8623 66.3841 55.8623 66.0195C55.8623 65.6523 55.8089 65.3203 55.7021 65.0234C55.598 64.724 55.4391 64.4857 55.2256 64.3086C55.012 64.1315 54.7464 64.043 54.4287 64.043C54.1032 64.043 53.8324 64.1315 53.6162 64.3086C53.4027 64.4857 53.2425 64.724 53.1357 65.0234C53.0316 65.3203 52.9795 65.6523 52.9795 66.0195C52.9795 66.3841 53.0316 66.7148 53.1357 67.0117C53.2425 67.3086 53.4027 67.5456 53.6162 67.7227C53.8324 67.8971 54.1032 67.9844 54.4287 67.9844ZM58.4961 69V63H59.8672V64H59.9297C60.0391 63.6536 60.2266 63.3867 60.4922 63.1992C60.7604 63.0091 61.0664 62.9141 61.4102 62.9141C61.4883 62.9141 61.5755 62.918 61.6719 62.9258C61.7708 62.931 61.8529 62.9401 61.918 62.9531V64.2539C61.8581 64.2331 61.763 64.2148 61.6328 64.1992C61.5052 64.181 61.3815 64.1719 61.2617 64.1719C61.0039 64.1719 60.7721 64.2279 60.5664 64.3398C60.3633 64.4492 60.2031 64.6016 60.0859 64.7969C59.9688 64.9922 59.9102 65.2174 59.9102 65.4727V69H58.4961ZM63.9189 71.25C63.7262 71.25 63.5479 71.2344 63.3838 71.2031C63.2223 71.1745 63.0934 71.1406 62.9971 71.1016L63.3252 70C63.5309 70.0599 63.7145 70.0885 63.876 70.0859C64.0374 70.0833 64.1794 70.0326 64.3018 69.9336C64.4268 69.8372 64.5322 69.6758 64.6182 69.4492L64.7393 69.125L62.5635 63H64.0635L65.4463 67.5312H65.5088L66.8955 63H68.3994L65.9971 69.7266C65.8851 70.0443 65.7367 70.3164 65.5518 70.543C65.3669 70.7721 65.1403 70.9466 64.8721 71.0664C64.6064 71.1888 64.2887 71.25 63.9189 71.25ZM72.0205 60.625L69.4424 70.2031H68.2041L70.7822 60.625H72.0205ZM72.9854 61H74.7588L77.1338 66.7969H77.2275L79.6025 61H81.376V69H79.9854V63.5039H79.9111L77.7002 68.9766H76.6611L74.4502 63.4922H74.376V69H72.9854V61ZM85.5479 69.1172C84.9463 69.1172 84.4268 68.9922 83.9893 68.7422C83.5544 68.4896 83.2197 68.1328 82.9854 67.6719C82.751 67.2083 82.6338 66.6628 82.6338 66.0352C82.6338 65.418 82.751 64.8763 82.9854 64.4102C83.2223 63.9414 83.5531 63.5768 83.9775 63.3164C84.402 63.0534 84.9007 62.9219 85.4736 62.9219C85.8434 62.9219 86.1924 62.9818 86.5205 63.1016C86.8512 63.2187 87.1429 63.401 87.3955 63.6484C87.6507 63.8958 87.8512 64.2109 87.9971 64.5937C88.1429 64.974 88.2158 65.4271 88.2158 65.9531V66.3867H83.2979V65.4336H86.8604C86.8577 65.1628 86.7992 64.9219 86.6846 64.7109C86.57 64.4974 86.4098 64.3294 86.2041 64.207C86.001 64.0846 85.764 64.0234 85.4932 64.0234C85.2041 64.0234 84.9502 64.0937 84.7314 64.2344C84.5127 64.3724 84.3421 64.5547 84.2197 64.7812C84.0999 65.0052 84.0387 65.2513 84.0361 65.5195V66.3516C84.0361 66.7005 84.0999 67 84.2275 67.25C84.3551 67.4974 84.5335 67.6875 84.7627 67.8203C84.9919 67.9505 85.2601 68.0156 85.5674 68.0156C85.7731 68.0156 85.9593 67.987 86.126 67.9297C86.2926 67.8698 86.4372 67.7826 86.5596 67.668C86.682 67.5534 86.7744 67.4115 86.8369 67.2422L88.1572 67.3906C88.0739 67.7396 87.915 68.0443 87.6807 68.3047C87.4489 68.5625 87.152 68.763 86.79 68.9062C86.4281 69.0469 86.014 69.1172 85.5479 69.1172ZM92.4082 63V64.0937H88.959V63H92.4082ZM89.8105 61.5625H91.2246V67.1953C91.2246 67.3854 91.2533 67.5313 91.3105 67.6328C91.3704 67.7318 91.4486 67.7995 91.5449 67.8359C91.6413 67.8724 91.748 67.8906 91.8652 67.8906C91.9538 67.8906 92.0345 67.8841 92.1074 67.8711C92.1829 67.8581 92.2402 67.8464 92.2793 67.8359L92.5176 68.9414C92.4421 68.9674 92.334 68.9961 92.1934 69.0273C92.0553 69.0586 91.8861 69.0768 91.6855 69.082C91.3314 69.0924 91.0124 69.0391 90.7285 68.9219C90.4447 68.8021 90.2194 68.6172 90.0527 68.3672C89.8887 68.1172 89.8079 67.8047 89.8105 67.4297V61.5625ZM95.3174 69.1211C94.9372 69.1211 94.5947 69.0534 94.29 68.918C93.988 68.7799 93.7484 68.5768 93.5713 68.3086C93.3968 68.0404 93.3096 67.7096 93.3096 67.3164C93.3096 66.9779 93.3721 66.6979 93.4971 66.4766C93.6221 66.2552 93.7926 66.0781 94.0088 65.9453C94.2249 65.8125 94.4684 65.7122 94.7393 65.6445C95.0127 65.5742 95.2952 65.5234 95.5869 65.4922C95.9385 65.4557 96.2236 65.4232 96.4424 65.3945C96.6611 65.3633 96.82 65.3164 96.9189 65.2539C97.0205 65.1888 97.0713 65.0885 97.0713 64.9531V64.9297C97.0713 64.6354 96.984 64.4076 96.8096 64.2461C96.6351 64.0846 96.3838 64.0039 96.0557 64.0039C95.7093 64.0039 95.4346 64.0794 95.2314 64.2305C95.0309 64.3815 94.8955 64.5599 94.8252 64.7656L93.5049 64.5781C93.609 64.2135 93.7809 63.9089 94.0205 63.6641C94.2601 63.4167 94.5531 63.2318 94.8994 63.1094C95.2458 62.9844 95.6286 62.9219 96.0479 62.9219C96.3369 62.9219 96.6247 62.9557 96.9111 63.0234C97.1976 63.0911 97.4593 63.2031 97.6963 63.3594C97.9333 63.513 98.1234 63.7227 98.2666 63.9883C98.4124 64.2539 98.4854 64.5859 98.4854 64.9844V69H97.126V68.1758H97.0791C96.9932 68.3424 96.8721 68.4987 96.7158 68.6445C96.5622 68.7878 96.3682 68.9036 96.1338 68.9922C95.902 69.0781 95.6299 69.1211 95.3174 69.1211ZM95.6846 68.082C95.9684 68.082 96.2145 68.026 96.4229 67.9141C96.6312 67.7995 96.7913 67.6484 96.9033 67.4609C97.0179 67.2734 97.0752 67.069 97.0752 66.8477V66.1406C97.0309 66.1771 96.9554 66.2109 96.8486 66.2422C96.7445 66.2734 96.6273 66.3008 96.4971 66.3242C96.3669 66.3477 96.238 66.3685 96.1104 66.3867C95.9827 66.4049 95.8721 66.4206 95.7783 66.4336C95.5674 66.4622 95.3786 66.5091 95.2119 66.5742C95.0452 66.6393 94.9137 66.7305 94.8174 66.8477C94.721 66.9622 94.6729 67.1107 94.6729 67.293C94.6729 67.5534 94.7679 67.75 94.958 67.8828C95.1481 68.0156 95.3903 68.082 95.6846 68.082ZM99.9697 69V61H101.384V63.9922H101.442C101.515 63.8464 101.618 63.6914 101.751 63.5273C101.884 63.3607 102.063 63.2187 102.29 63.1016C102.517 62.9818 102.806 62.9219 103.157 62.9219C103.621 62.9219 104.039 63.0404 104.411 63.2773C104.786 63.5117 105.083 63.8594 105.302 64.3203C105.523 64.7786 105.634 65.3411 105.634 66.0078C105.634 66.6667 105.526 67.2266 105.31 67.6875C105.093 68.1484 104.799 68.5 104.427 68.7422C104.054 68.9844 103.632 69.1055 103.161 69.1055C102.817 69.1055 102.532 69.0482 102.306 68.9336C102.079 68.819 101.897 68.681 101.759 68.5195C101.623 68.3555 101.518 68.2005 101.442 68.0547H101.36V69H99.9697ZM101.356 66C101.356 66.388 101.411 66.7279 101.521 67.0195C101.632 67.3112 101.793 67.5391 102.001 67.7031C102.212 67.8646 102.467 67.9453 102.767 67.9453C103.079 67.9453 103.341 67.862 103.552 67.6953C103.763 67.526 103.922 67.2956 104.028 67.0039C104.138 66.7096 104.192 66.375 104.192 66C104.192 65.6276 104.139 65.2969 104.032 65.0078C103.925 64.7187 103.767 64.4922 103.556 64.3281C103.345 64.1641 103.082 64.082 102.767 64.082C102.465 64.082 102.208 64.1615 101.997 64.3203C101.786 64.4792 101.626 64.7018 101.517 64.9883C101.41 65.2747 101.356 65.612 101.356 66ZM109.453 69.1172C108.867 69.1172 108.359 68.9883 107.93 68.7305C107.5 68.4727 107.167 68.112 106.93 67.6484C106.695 67.1849 106.578 66.6432 106.578 66.0234C106.578 65.4036 106.695 64.8607 106.93 64.3945C107.167 63.9284 107.5 63.5664 107.93 63.3086C108.359 63.0508 108.867 62.9219 109.453 62.9219C110.039 62.9219 110.547 63.0508 110.977 63.3086C111.406 63.5664 111.738 63.9284 111.973 64.3945C112.21 64.8607 112.328 65.4036 112.328 66.0234C112.328 66.6432 112.21 67.1849 111.973 67.6484C111.738 68.112 111.406 68.4727 110.977 68.7305C110.547 68.9883 110.039 69.1172 109.453 69.1172ZM109.461 67.9844C109.779 67.9844 110.044 67.8971 110.258 67.7227C110.471 67.5456 110.63 67.3086 110.734 67.0117C110.841 66.7148 110.895 66.3841 110.895 66.0195C110.895 65.6523 110.841 65.3203 110.734 65.0234C110.63 64.724 110.471 64.4857 110.258 64.3086C110.044 64.1315 109.779 64.043 109.461 64.043C109.135 64.043 108.865 64.1315 108.648 64.3086C108.435 64.4857 108.275 64.724 108.168 65.0234C108.064 65.3203 108.012 65.6523 108.012 66.0195C108.012 66.3841 108.064 66.7148 108.168 67.0117C108.275 67.3086 108.435 67.5456 108.648 67.7227C108.865 67.8971 109.135 67.9844 109.461 67.9844ZM114.942 61V69H113.528V61H114.942ZM116.396 69V63H117.811V69H116.396ZM117.107 62.1484C116.883 62.1484 116.691 62.0742 116.529 61.9258C116.368 61.7747 116.287 61.5937 116.287 61.3828C116.287 61.1693 116.368 60.9883 116.529 60.8398C116.691 60.6888 116.883 60.6133 117.107 60.6133C117.334 60.6133 117.527 60.6888 117.686 60.8398C117.847 60.9883 117.928 61.1693 117.928 61.3828C117.928 61.5937 117.847 61.7747 117.686 61.9258C117.527 62.0742 117.334 62.1484 117.107 62.1484ZM121.882 69.1172C121.283 69.1172 120.769 68.9857 120.339 68.7227C119.912 68.4596 119.582 68.0964 119.351 67.6328C119.121 67.1667 119.007 66.6302 119.007 66.0234C119.007 65.4141 119.124 64.8763 119.358 64.4102C119.593 63.9414 119.924 63.5768 120.351 63.3164C120.78 63.0534 121.288 62.9219 121.874 62.9219C122.361 62.9219 122.792 63.0117 123.167 63.1914C123.545 63.3685 123.845 63.6198 124.069 63.9453C124.293 64.2682 124.421 64.6458 124.452 65.0781H123.101C123.046 64.7891 122.916 64.5482 122.71 64.3555C122.507 64.1602 122.235 64.0625 121.894 64.0625C121.604 64.0625 121.351 64.1406 121.132 64.2969C120.913 64.4505 120.743 64.6719 120.62 64.9609C120.5 65.25 120.44 65.5964 120.44 66C120.44 66.4089 120.5 66.7604 120.62 67.0547C120.74 67.3464 120.908 67.5716 121.124 67.7305C121.343 67.8867 121.599 67.9648 121.894 67.9648C122.102 67.9648 122.288 67.9258 122.452 67.8477C122.619 67.7669 122.758 67.651 122.87 67.5C122.982 67.349 123.059 67.1654 123.101 66.9492H124.452C124.418 67.3737 124.293 67.75 124.077 68.0781C123.861 68.4036 123.567 68.6589 123.194 68.8437C122.822 69.026 122.384 69.1172 121.882 69.1172ZM130.355 64.5859L129.066 64.7266C129.03 64.5964 128.966 64.474 128.875 64.3594C128.786 64.2448 128.667 64.1523 128.516 64.082C128.365 64.0117 128.18 63.9766 127.961 63.9766C127.667 63.9766 127.419 64.0404 127.219 64.168C127.021 64.2956 126.923 64.4609 126.926 64.6641C126.923 64.8385 126.987 64.9805 127.117 65.0898C127.25 65.1992 127.469 65.2891 127.773 65.3594L128.797 65.5781C129.365 65.7005 129.786 65.8945 130.063 66.1602C130.341 66.4258 130.482 66.7734 130.484 67.2031C130.482 67.5807 130.371 67.9141 130.152 68.2031C129.936 68.4896 129.635 68.7135 129.25 68.875C128.865 69.0365 128.422 69.1172 127.922 69.1172C127.188 69.1172 126.596 68.9635 126.148 68.6562C125.701 68.3464 125.434 67.9154 125.348 67.3633L126.727 67.2305C126.789 67.5013 126.922 67.7057 127.125 67.8437C127.328 67.9818 127.592 68.0508 127.918 68.0508C128.254 68.0508 128.523 67.9818 128.727 67.8437C128.932 67.7057 129.035 67.5352 129.035 67.332C129.035 67.1602 128.969 67.0182 128.836 66.9062C128.706 66.7943 128.503 66.7083 128.227 66.6484L127.203 66.4336C126.628 66.3138 126.202 66.112 125.926 65.8281C125.65 65.5417 125.513 65.1797 125.516 64.7422C125.513 64.3724 125.613 64.0521 125.816 63.7812C126.022 63.5078 126.307 63.2969 126.672 63.1484C127.039 62.9974 127.462 62.9219 127.941 62.9219C128.645 62.9219 129.198 63.0716 129.602 63.3711C130.008 63.6706 130.259 64.0755 130.355 64.5859Z" fill="#141827"/>
</svg>
