<svg width="104" height="81" viewBox="0 0 104 81" fill="none" xmlns="http://www.w3.org/2000/svg">
<path d="M43.2198 29.0011H49.5003L50.0003 28.0011L52.0005 32.5011L54.0006 25.501L55.5008 29.0011H60.7712M42 25.5006C42 24.3878 42.3376 23.3011 42.9682 22.3842C43.5988 21.4673 44.4927 20.7632 45.5319 20.3649C46.5711 19.9667 47.7066 19.893 48.7885 20.1536C49.8705 20.4142 50.8479 20.9968 51.5917 21.8245C51.6441 21.8806 51.7075 21.9252 51.7778 21.9557C51.8482 21.9863 51.9241 22.002 52.0008 22.002C52.0775 22.002 52.1533 21.9863 52.2237 21.9557C52.2941 21.9252 52.3574 21.8806 52.4098 21.8245C53.1513 20.9914 54.129 20.4039 55.2126 20.1401C56.2963 19.8764 57.4347 19.9489 58.4761 20.348C59.5176 20.7472 60.4128 21.454 61.0426 22.3745C61.6724 23.2949 62.0069 24.3853 62.0015 25.5006C62.0015 27.7906 60.5014 29.5006 59.0013 31.0006L53.5089 36.3137C53.3225 36.5277 53.0928 36.6996 52.8349 36.818C52.577 36.9364 52.2968 36.9985 52.0131 37.0003C51.7293 37.0021 51.4484 36.9435 51.189 36.8284C50.9296 36.7133 50.6977 36.5443 50.5087 36.3327L45.0002 31.0006C43.5001 29.5006 42 27.8006 42 25.5006Z" stroke="#1F2937" stroke-width="2" stroke-linecap="round"/>
<path d="M19.2969 67.1328C18.9167 67.1328 18.5729 67.0625 18.2656 66.9219C17.9583 66.7786 17.7148 66.5716 17.5352 66.3008C17.3581 66.0299 17.2695 65.6979 17.2695 65.3047C17.2695 64.9661 17.3346 64.6875 17.4648 64.4687C17.5951 64.25 17.7708 64.0768 17.9922 63.9492C18.2135 63.8216 18.4609 63.7253 18.7344 63.6602C19.0078 63.5951 19.2865 63.5456 19.5703 63.5117C19.9297 63.4701 20.2214 63.4362 20.4453 63.4102C20.6693 63.3815 20.832 63.3359 20.9336 63.2734C21.0352 63.2109 21.0859 63.1094 21.0859 62.9687V62.9414C21.0859 62.6003 20.9896 62.3359 20.7969 62.1484C20.6068 61.9609 20.3229 61.8672 19.9453 61.8672C19.5521 61.8672 19.2422 61.9544 19.0156 62.1289C18.7917 62.3008 18.6367 62.4922 18.5508 62.7031L17.4531 62.4531C17.5833 62.0885 17.7734 61.7943 18.0234 61.5703C18.276 61.3437 18.5664 61.1797 18.8945 61.0781C19.2227 60.974 19.5677 60.9219 19.9297 60.9219C20.1693 60.9219 20.4232 60.9505 20.6914 61.0078C20.9622 61.0625 21.2148 61.1641 21.4492 61.3125C21.6862 61.4609 21.8802 61.6732 22.0313 61.9492C22.1823 62.2227 22.2578 62.5781 22.2578 63.0156V67H21.1172V66.1797H21.0703C20.9948 66.3307 20.8815 66.4792 20.7305 66.625C20.5794 66.7708 20.3854 66.8919 20.1484 66.9883C19.9115 67.0846 19.6276 67.1328 19.2969 67.1328ZM19.5508 66.1953C19.8737 66.1953 20.1497 66.1315 20.3789 66.0039C20.6107 65.8763 20.7865 65.7096 20.9063 65.5039C21.0286 65.2956 21.0898 65.0729 21.0898 64.8359V64.0625C21.0482 64.1042 20.9674 64.1432 20.8477 64.1797C20.7305 64.2135 20.5964 64.2435 20.4453 64.2695C20.2943 64.293 20.1471 64.3151 20.0039 64.3359C19.8607 64.3542 19.7409 64.3698 19.6445 64.3828C19.418 64.4115 19.2109 64.4596 19.0234 64.5273C18.8385 64.5951 18.6901 64.6927 18.5781 64.8203C18.4688 64.9453 18.4141 65.112 18.4141 65.3203C18.4141 65.6094 18.5208 65.8281 18.7344 65.9766C18.9479 66.1224 19.2201 66.1953 19.5508 66.1953ZM26.3408 67.1211C25.7601 67.1211 25.2601 66.9896 24.8408 66.7266C24.4242 66.4609 24.1038 66.0951 23.8799 65.6289C23.6559 65.1628 23.5439 64.6289 23.5439 64.0273C23.5439 63.418 23.6585 62.8802 23.8877 62.4141C24.1169 61.9453 24.4398 61.5794 24.8564 61.3164C25.2731 61.0534 25.764 60.9219 26.3291 60.9219C26.7848 60.9219 27.1911 61.0065 27.5479 61.1758C27.9046 61.3424 28.1924 61.5768 28.4111 61.8789C28.6325 62.181 28.764 62.5339 28.8057 62.9375H27.6689C27.6064 62.6562 27.4632 62.4141 27.2393 62.2109C27.0179 62.0078 26.721 61.9062 26.3486 61.9062C26.0231 61.9062 25.738 61.9922 25.4932 62.1641C25.251 62.3333 25.0622 62.5755 24.9268 62.8906C24.7913 63.2031 24.7236 63.5729 24.7236 64C24.7236 64.4375 24.79 64.8151 24.9229 65.1328C25.0557 65.4505 25.2432 65.6966 25.4854 65.8711C25.7301 66.0456 26.0179 66.1328 26.3486 66.1328C26.57 66.1328 26.7705 66.0924 26.9502 66.0117C27.1325 65.9284 27.2848 65.8099 27.4072 65.6562C27.5322 65.5026 27.6195 65.3177 27.6689 65.1016H28.8057C28.764 65.4896 28.6377 65.8359 28.4268 66.1406C28.2158 66.4453 27.9333 66.6849 27.5791 66.8594C27.2275 67.0339 26.8148 67.1211 26.3408 67.1211ZM32.8555 61V61.9375H29.5781V61H32.8555ZM30.457 59.5625H31.625V65.2383C31.625 65.4648 31.6589 65.6354 31.7266 65.75C31.7943 65.862 31.8815 65.9388 31.9883 65.9805C32.0977 66.0195 32.2161 66.0391 32.3438 66.0391C32.4375 66.0391 32.5195 66.0326 32.5898 66.0195C32.6602 66.0065 32.7148 65.9961 32.7539 65.9883L32.9648 66.9531C32.8971 66.9792 32.8008 67.0052 32.6758 67.0313C32.5508 67.0599 32.3945 67.0755 32.207 67.0781C31.8997 67.0833 31.6133 67.0286 31.3477 66.9141C31.082 66.7995 30.8672 66.6224 30.7031 66.3828C30.5391 66.1432 30.457 65.8424 30.457 65.4805V59.5625ZM34.1475 67V61H35.3154V67H34.1475ZM34.7373 60.0742C34.5342 60.0742 34.3597 60.0065 34.2139 59.8711C34.0706 59.7331 33.999 59.569 33.999 59.3789C33.999 59.1862 34.0706 59.0221 34.2139 58.8867C34.3597 58.7487 34.5342 58.6797 34.7373 58.6797C34.9404 58.6797 35.1136 58.7487 35.2568 58.8867C35.4027 59.0221 35.4756 59.1862 35.4756 59.3789C35.4756 59.569 35.4027 59.7331 35.2568 59.8711C35.1136 60.0065 34.9404 60.0742 34.7373 60.0742ZM42.0195 61L39.8438 67H38.5938L36.4141 61H37.668L39.1875 65.6172H39.25L40.7656 61H42.0195ZM43.1172 67V61H44.2852V67H43.1172ZM43.707 60.0742C43.5039 60.0742 43.3294 60.0065 43.1836 59.8711C43.0404 59.7331 42.9688 59.569 42.9688 59.3789C42.9688 59.1862 43.0404 59.0221 43.1836 58.8867C43.3294 58.7487 43.5039 58.6797 43.707 58.6797C43.9102 58.6797 44.0833 58.7487 44.2266 58.8867C44.3724 59.0221 44.4453 59.1862 44.4453 59.3789C44.4453 59.569 44.3724 59.7331 44.2266 59.8711C44.0833 60.0065 43.9102 60.0742 43.707 60.0742ZM48.6572 61V61.9375H45.3799V61H48.6572ZM46.2588 59.5625H47.4268V65.2383C47.4268 65.4648 47.4606 65.6354 47.5283 65.75C47.596 65.862 47.6833 65.9388 47.79 65.9805C47.8994 66.0195 48.0179 66.0391 48.1455 66.0391C48.2393 66.0391 48.3213 66.0326 48.3916 66.0195C48.4619 66.0065 48.5166 65.9961 48.5557 65.9883L48.7666 66.9531C48.6989 66.9792 48.6025 67.0052 48.4775 67.0313C48.3525 67.0599 48.1963 67.0755 48.0088 67.0781C47.7015 67.0833 47.415 67.0286 47.1494 66.9141C46.8838 66.7995 46.6689 66.6224 46.5049 66.3828C46.3408 66.1432 46.2588 65.8424 46.2588 65.4805V59.5625ZM50.6875 69.25C50.513 69.25 50.3542 69.2357 50.2109 69.207C50.0677 69.181 49.9609 69.1523 49.8906 69.1211L50.1719 68.1641C50.3854 68.2214 50.5755 68.2461 50.7422 68.2383C50.9089 68.2305 51.056 68.168 51.1836 68.0508C51.3138 67.9336 51.4284 67.7422 51.5273 67.4766L51.6719 67.0781L49.4766 61H50.7266L52.2461 65.6562H52.3086L53.8281 61H55.082L52.6094 67.8008C52.4948 68.1133 52.349 68.3776 52.1719 68.5938C51.9948 68.8125 51.7839 68.9766 51.5391 69.0859C51.2943 69.1953 51.0104 69.25 50.6875 69.25ZM58.6035 58.625L56.0254 68.2031H54.9824L57.5605 58.625H58.6035ZM59.5957 69.25V61H60.7363V61.9727H60.834C60.9017 61.8477 60.9993 61.7031 61.127 61.5391C61.2546 61.375 61.4316 61.2318 61.6582 61.1094C61.8848 60.9844 62.1842 60.9219 62.5566 60.9219C63.041 60.9219 63.4733 61.0443 63.8535 61.2891C64.2337 61.5339 64.5319 61.8867 64.748 62.3477C64.9668 62.8086 65.0762 63.3633 65.0762 64.0117C65.0762 64.6602 64.9681 65.2161 64.752 65.6797C64.5358 66.1406 64.2389 66.4961 63.8613 66.7461C63.4837 66.9935 63.0527 67.1172 62.5684 67.1172C62.2038 67.1172 61.9056 67.056 61.6738 66.9336C61.4447 66.8112 61.265 66.668 61.1348 66.5039C61.0046 66.3398 60.9043 66.194 60.834 66.0664H60.7637V69.25H59.5957ZM60.7402 64C60.7402 64.4219 60.8014 64.7917 60.9238 65.1094C61.0462 65.4271 61.2233 65.6758 61.4551 65.8555C61.6868 66.0326 61.9707 66.1211 62.3066 66.1211C62.6556 66.1211 62.9473 66.0286 63.1816 65.8437C63.416 65.6562 63.5931 65.4023 63.7129 65.082C63.8353 64.7617 63.8965 64.401 63.8965 64C63.8965 63.6042 63.8366 63.2487 63.7168 62.9336C63.5996 62.6185 63.4225 62.3698 63.1855 62.1875C62.9512 62.0052 62.6582 61.9141 62.3066 61.9141C61.9681 61.9141 61.6816 62.0013 61.4473 62.1758C61.2155 62.3503 61.0397 62.5937 60.9199 62.9062C60.8001 63.2187 60.7402 63.5833 60.7402 64ZM70.1855 64.5117V61H71.3574V67H70.209V65.9609H70.1465C70.0085 66.2813 69.7871 66.5482 69.4824 66.7617C69.1803 66.9727 68.804 67.0781 68.3535 67.0781C67.9681 67.0781 67.627 66.9935 67.3301 66.8242C67.0358 66.6523 66.804 66.3984 66.6348 66.0625C66.4681 65.7266 66.3848 65.3112 66.3848 64.8164V61H67.5527V64.6758C67.5527 65.0846 67.666 65.4102 67.8926 65.6523C68.1191 65.8945 68.4134 66.0156 68.7754 66.0156C68.9941 66.0156 69.2116 65.9609 69.4277 65.8516C69.6465 65.7422 69.8275 65.5768 69.9707 65.3555C70.1165 65.1341 70.1882 64.8529 70.1855 64.5117ZM74.0947 59V67H72.9268V59H74.0947ZM80.1621 62.4648L79.1035 62.6523C79.0592 62.5169 78.9889 62.388 78.8926 62.2656C78.7988 62.1432 78.6712 62.043 78.5098 61.9648C78.3483 61.8867 78.1465 61.8477 77.9043 61.8477C77.5736 61.8477 77.2975 61.9219 77.0762 62.0703C76.8548 62.2161 76.7441 62.4049 76.7441 62.6367C76.7441 62.8372 76.8184 62.9987 76.9668 63.1211C77.1152 63.2435 77.3548 63.3437 77.6855 63.4219L78.6387 63.6406C79.1908 63.7682 79.6022 63.9648 79.873 64.2305C80.1439 64.4961 80.2793 64.8411 80.2793 65.2656C80.2793 65.625 80.1751 65.9453 79.9668 66.2266C79.7611 66.5052 79.4733 66.724 79.1035 66.8828C78.7363 67.0417 78.3105 67.1211 77.8262 67.1211C77.1543 67.1211 76.6061 66.9779 76.1816 66.6914C75.7572 66.4023 75.4967 65.9922 75.4004 65.4609L76.5293 65.2891C76.5996 65.5833 76.7441 65.806 76.9629 65.957C77.1816 66.1055 77.4668 66.1797 77.8184 66.1797C78.2012 66.1797 78.5072 66.1003 78.7363 65.9414C78.9655 65.7799 79.0801 65.5833 79.0801 65.3516C79.0801 65.1641 79.0098 65.0065 78.8691 64.8789C78.7311 64.7513 78.5189 64.6549 78.2324 64.5898L77.2168 64.3672C76.6569 64.2396 76.2428 64.0365 75.9746 63.7578C75.709 63.4792 75.5762 63.1263 75.5762 62.6992C75.5762 62.3451 75.6751 62.0352 75.873 61.7695C76.071 61.5039 76.3444 61.2969 76.6934 61.1484C77.0423 60.9974 77.4421 60.9219 77.8926 60.9219C78.541 60.9219 79.0514 61.0625 79.4238 61.3437C79.7962 61.6224 80.0423 61.9961 80.1621 62.4648ZM84.1494 67.1211C83.5583 67.1211 83.0492 66.9948 82.6221 66.7422C82.1976 66.487 81.8695 66.1289 81.6377 65.668C81.4085 65.2044 81.2939 64.6615 81.2939 64.0391C81.2939 63.4245 81.4085 62.8828 81.6377 62.4141C81.8695 61.9453 82.1924 61.5794 82.6064 61.3164C83.0231 61.0534 83.5101 60.9219 84.0674 60.9219C84.4059 60.9219 84.734 60.9779 85.0518 61.0898C85.3695 61.2018 85.6546 61.3776 85.9072 61.6172C86.1598 61.8568 86.359 62.168 86.5049 62.5508C86.6507 62.931 86.7236 63.3932 86.7236 63.9375V64.3516H81.9541V63.4766H85.5791C85.5791 63.1693 85.5166 62.8971 85.3916 62.6602C85.2666 62.4206 85.0908 62.2318 84.8643 62.0937C84.6403 61.9557 84.3773 61.8867 84.0752 61.8867C83.7471 61.8867 83.4606 61.9674 83.2158 62.1289C82.9736 62.2878 82.7861 62.4961 82.6533 62.7539C82.5231 63.0091 82.458 63.2865 82.458 63.5859V64.2695C82.458 64.6706 82.5283 65.0117 82.6689 65.293C82.8122 65.5742 83.0114 65.7891 83.2666 65.9375C83.5218 66.0833 83.82 66.1562 84.1611 66.1562C84.3825 66.1562 84.5843 66.125 84.7666 66.0625C84.9489 65.9974 85.1064 65.901 85.2393 65.7734C85.3721 65.6458 85.4736 65.4883 85.5439 65.3008L86.6494 65.5C86.5609 65.8255 86.402 66.1107 86.1729 66.3555C85.9463 66.5977 85.6611 66.7865 85.3174 66.9219C84.9762 67.0547 84.5869 67.1211 84.1494 67.1211Z" fill="#4B5563"/>
</svg>
