<svg width="210" height="18" viewBox="0 0 210 18" fill="none" xmlns="http://www.w3.org/2000/svg">
<path d="M8.20312 17.9766C6.63281 17.9766 5.22656 17.6172 3.98438 16.8984C2.75 16.1797 1.77734 15.1523 1.06641 13.8164C0.355469 12.4727 0 10.8672 0 9C0 7.11719 0.355469 5.50391 1.06641 4.16016C1.77734 2.81641 2.75391 1.78906 3.99609 1.07812C5.23828 0.359375 6.64062 0 8.20312 0C9.21875 0 10.1602 0.144531 11.0273 0.433594C11.8945 0.722656 12.6602 1.14453 13.3242 1.69922C13.9961 2.24609 14.5469 2.91016 14.9766 3.69141C15.4062 4.47266 15.6875 5.35156 15.8203 6.32812H12.1875C12.0938 5.82812 11.9336 5.38672 11.707 5.00391C11.4805 4.61328 11.1953 4.28125 10.8516 4.00781C10.5156 3.73438 10.1289 3.52734 9.69141 3.38672C9.25391 3.24609 8.78125 3.17578 8.27344 3.17578C7.32031 3.17578 6.49609 3.41016 5.80078 3.87891C5.10547 4.34766 4.56641 5.01562 4.18359 5.88281C3.80859 6.75 3.62109 7.78906 3.62109 9C3.62109 10.2188 3.80859 11.2617 4.18359 12.1289C4.56641 12.9883 5.10547 13.6484 5.80078 14.1094C6.49609 14.5703 7.31641 14.8008 8.26172 14.8008C8.77734 14.8008 9.25 14.7305 9.67969 14.5898C10.1094 14.4492 10.4961 14.2461 10.8398 13.9805C11.1836 13.707 11.4688 13.375 11.6953 12.9844C11.9297 12.5938 12.0977 12.1523 12.1992 11.6602H15.832C15.707 12.5586 15.4375 13.3945 15.0234 14.168C14.6172 14.9336 14.082 15.6016 13.418 16.1719C12.7539 16.7422 11.9844 17.1875 11.1094 17.5078C10.2344 17.8203 9.26562 17.9766 8.20312 17.9766ZM16.3594 17.7188L22.418 0.257812H27.0703L33.1992 17.7188H29.2148L26.4492 9.25781C26.1055 8.15625 25.7578 6.98828 25.4062 5.75391C25.0625 4.51953 24.6875 3.14453 24.2812 1.62891H25.1836C24.7852 3.14453 24.4141 4.52344 24.0703 5.76562C23.7266 7 23.3867 8.16406 23.0508 9.25781L20.2734 17.7188H16.3594ZM20.1797 13.8047V10.957H29.3906V13.8047H20.1797ZM31.957 3.29297V0.257812H46.1836V3.29297H40.875V17.7188H37.2773V3.29297H31.957ZM48.293 17.7188V0.257812H60.4453V3.29297H51.8789V7.41797H59.8008V10.3828H51.8789V14.6836H60.457V17.7188H48.293ZM70.6055 17.9766C68.9648 17.9766 67.5234 17.6094 66.2812 16.875C65.0469 16.1328 64.082 15.0898 63.3867 13.7461C62.6914 12.4023 62.3438 10.8203 62.3438 9C62.3438 7.13281 62.7031 5.52734 63.4219 4.18359C64.1406 2.83203 65.1172 1.79687 66.3516 1.07812C67.5938 0.359375 68.9922 0 70.5469 0C71.5391 0 72.4648 0.144531 73.3242 0.433594C74.1914 0.722656 74.9609 1.13672 75.6328 1.67578C76.3125 2.20703 76.8672 2.83984 77.2969 3.57422C77.7266 4.30859 78 5.12109 78.1172 6.01172H74.4609C74.3516 5.57422 74.1836 5.18359 73.957 4.83984C73.7383 4.48828 73.4648 4.19141 73.1367 3.94922C72.8086 3.69922 72.4336 3.50781 72.0117 3.375C71.5977 3.24219 71.1367 3.17578 70.6289 3.17578C69.6836 3.17578 68.8594 3.41016 68.1562 3.87891C67.4609 4.33984 66.9219 5.00391 66.5391 5.87109C66.1562 6.73047 65.9648 7.76953 65.9648 8.98828C65.9648 10.1992 66.1562 11.2383 66.5391 12.1055C66.9219 12.9727 67.4648 13.6406 68.168 14.1094C68.8711 14.5703 69.7031 14.8008 70.6641 14.8008C71.4922 14.8008 72.2109 14.6484 72.8203 14.3438C73.4375 14.0312 73.9141 13.5977 74.25 13.043C74.5859 12.4805 74.7539 11.8242 74.7539 11.0742L75.5625 11.1562H70.957V8.42578H78.2578V10.6406C78.2578 12.1172 77.9297 13.4062 77.2734 14.5078C76.6172 15.6094 75.7148 16.4648 74.5664 17.0742C73.418 17.6758 72.0977 17.9766 70.6055 17.9766ZM88.3477 17.9766C86.793 17.9766 85.3945 17.6172 84.1523 16.8984C82.918 16.1797 81.9414 15.1523 81.2227 13.8164C80.5117 12.4727 80.1562 10.8672 80.1562 9C80.1562 7.125 80.5117 5.51562 81.2227 4.17188C81.9414 2.82812 82.918 1.79687 84.1523 1.07812C85.3945 0.359375 86.793 0 88.3477 0C89.9023 0 91.2969 0.359375 92.5312 1.07812C93.7656 1.79687 94.7422 2.82812 95.4609 4.17188C96.1797 5.51562 96.5391 7.125 96.5391 9C96.5391 10.8672 96.1797 12.4727 95.4609 13.8164C94.7422 15.1602 93.7656 16.1914 92.5312 16.9102C91.2969 17.6211 89.9023 17.9766 88.3477 17.9766ZM88.3477 14.8008C89.2461 14.8008 90.0391 14.5781 90.7266 14.1328C91.4141 13.6797 91.9492 13.0195 92.332 12.1523C92.7148 11.2852 92.9062 10.2344 92.9062 9C92.9062 7.75 92.7148 6.69141 92.332 5.82422C91.9492 4.95703 91.4141 4.30078 90.7266 3.85547C90.0391 3.40234 89.2461 3.17578 88.3477 3.17578C87.4492 3.17578 86.6562 3.40234 85.9688 3.85547C85.2812 4.30078 84.7422 4.96094 84.3516 5.83594C83.9688 6.70312 83.7773 7.75781 83.7773 9C83.7773 10.2344 83.9688 11.2852 84.3516 12.1523C84.7422 13.0195 85.2812 13.6797 85.9688 14.1328C86.6562 14.5781 87.4492 14.8008 88.3477 14.8008ZM98.8711 17.7188V0.257812H105.773C107.094 0.257812 108.227 0.492188 109.172 0.960938C110.117 1.42969 110.84 2.08984 111.34 2.94141C111.848 3.79297 112.102 4.80078 112.102 5.96484C112.102 7.12109 111.84 8.11719 111.316 8.95312C110.793 9.78906 110.047 10.4336 109.078 10.8867C108.109 11.332 106.957 11.5547 105.621 11.5547H101.004V8.66016H105.363C106.043 8.66016 106.613 8.55469 107.074 8.34375C107.543 8.125 107.898 7.81641 108.141 7.41797C108.383 7.01172 108.504 6.52734 108.504 5.96484C108.504 5.39453 108.383 4.90625 108.141 4.5C107.898 4.09375 107.543 3.78125 107.074 3.5625C106.605 3.34375 106.031 3.23438 105.352 3.23438H102.457V17.7188H98.8711ZM108.68 17.7188L104.578 9.80859H108.41L112.594 17.7188H108.68ZM119.203 17.7188V11.1797L112.734 0.257812H116.895L119.848 5.58984C120.137 6.09766 120.402 6.60547 120.645 7.11328C120.895 7.61328 121.145 8.16406 121.395 8.76562H120.609C120.844 8.16406 121.082 7.60938 121.324 7.10156C121.566 6.59375 121.824 6.08984 122.098 5.58984L124.969 0.257812H129.105L122.73 11.1797V17.7188H119.203ZM139.816 0.257812V17.7188H136.23V0.257812H139.816ZM150.352 17.9766C148.781 17.9766 147.375 17.6172 146.133 16.8984C144.898 16.1797 143.926 15.1523 143.215 13.8164C142.504 12.4727 142.148 10.8672 142.148 9C142.148 7.11719 142.504 5.50391 143.215 4.16016C143.926 2.81641 144.902 1.78906 146.145 1.07812C147.387 0.359375 148.789 0 150.352 0C151.367 0 152.309 0.144531 153.176 0.433594C154.043 0.722656 154.809 1.14453 155.473 1.69922C156.145 2.24609 156.695 2.91016 157.125 3.69141C157.555 4.47266 157.836 5.35156 157.969 6.32812H154.336C154.242 5.82812 154.082 5.38672 153.855 5.00391C153.629 4.61328 153.344 4.28125 153 4.00781C152.664 3.73438 152.277 3.52734 151.84 3.38672C151.402 3.24609 150.93 3.17578 150.422 3.17578C149.469 3.17578 148.645 3.41016 147.949 3.87891C147.254 4.34766 146.715 5.01562 146.332 5.88281C145.957 6.75 145.77 7.78906 145.77 9C145.77 10.2188 145.957 11.2617 146.332 12.1289C146.715 12.9883 147.254 13.6484 147.949 14.1094C148.645 14.5703 149.465 14.8008 150.41 14.8008C150.926 14.8008 151.398 14.7305 151.828 14.5898C152.258 14.4492 152.645 14.2461 152.988 13.9805C153.332 13.707 153.617 13.375 153.844 12.9844C154.078 12.5938 154.246 12.1523 154.348 11.6602H157.98C157.855 12.5586 157.586 13.3945 157.172 14.168C156.766 14.9336 156.23 15.6016 155.566 16.1719C154.902 16.7422 154.133 17.1875 153.258 17.5078C152.383 17.8203 151.414 17.9766 150.352 17.9766ZM167.918 17.9766C166.363 17.9766 164.965 17.6172 163.723 16.8984C162.488 16.1797 161.512 15.1523 160.793 13.8164C160.082 12.4727 159.727 10.8672 159.727 9C159.727 7.125 160.082 5.51562 160.793 4.17188C161.512 2.82812 162.488 1.79687 163.723 1.07812C164.965 0.359375 166.363 0 167.918 0C169.473 0 170.867 0.359375 172.102 1.07812C173.336 1.79687 174.312 2.82812 175.031 4.17188C175.75 5.51562 176.109 7.125 176.109 9C176.109 10.8672 175.75 12.4727 175.031 13.8164C174.312 15.1602 173.336 16.1914 172.102 16.9102C170.867 17.6211 169.473 17.9766 167.918 17.9766ZM167.918 14.8008C168.816 14.8008 169.609 14.5781 170.297 14.1328C170.984 13.6797 171.52 13.0195 171.902 12.1523C172.285 11.2852 172.477 10.2344 172.477 9C172.477 7.75 172.285 6.69141 171.902 5.82422C171.52 4.95703 170.984 4.30078 170.297 3.85547C169.609 3.40234 168.816 3.17578 167.918 3.17578C167.02 3.17578 166.227 3.40234 165.539 3.85547C164.852 4.30078 164.312 4.96094 163.922 5.83594C163.539 6.70312 163.348 7.75781 163.348 9C163.348 10.2344 163.539 11.2852 163.922 12.1523C164.312 13.0195 164.852 13.6797 165.539 14.1328C166.227 14.5781 167.02 14.8008 167.918 14.8008ZM178.441 17.7188V0.257812H182.32L187.887 9.15234C188.105 9.50391 188.352 9.92578 188.625 10.418C188.906 10.9023 189.195 11.4375 189.492 12.0234C189.789 12.6016 190.078 13.207 190.359 13.8398L189.973 14.3555C189.934 13.7695 189.895 13.125 189.855 12.4219C189.824 11.7109 189.801 11.0312 189.785 10.3828C189.77 9.72656 189.762 9.19531 189.762 8.78906V0.257812H193.383V17.7188H189.492L184.441 9.66797C184.16 9.21484 183.859 8.71094 183.539 8.15625C183.219 7.60156 182.875 6.98047 182.508 6.29297C182.141 5.59766 181.734 4.82812 181.289 3.98438L181.84 3.75C181.895 4.60156 181.938 5.41016 181.969 6.17578C182 6.94141 182.023 7.625 182.039 8.22656C182.055 8.82031 182.062 9.29688 182.062 9.65625V17.7188H178.441ZM202.77 17.9883C201.316 17.9883 200.066 17.7617 199.02 17.3086C197.973 16.8555 197.164 16.1914 196.594 15.3164C196.031 14.4414 195.742 13.3789 195.727 12.1289H199.207C199.23 12.7461 199.391 13.2695 199.688 13.6992C199.992 14.1211 200.406 14.4453 200.93 14.6719C201.453 14.8906 202.066 15 202.77 15C203.426 15 203.996 14.9102 204.48 14.7305C204.965 14.543 205.344 14.2812 205.617 13.9453C205.891 13.6094 206.027 13.2188 206.027 12.7734C206.027 12.3828 205.914 12.0508 205.688 11.7773C205.461 11.5039 205.121 11.2656 204.668 11.0625C204.215 10.8594 203.641 10.6797 202.945 10.5234L201.07 10.0898C199.453 9.72266 198.223 9.14453 197.379 8.35547C196.543 7.56641 196.125 6.54297 196.125 5.28516C196.125 4.22266 196.402 3.29688 196.957 2.50781C197.52 1.71875 198.297 1.10547 199.289 0.667969C200.281 0.222656 201.426 0 202.723 0C204.043 0 205.188 0.222656 206.156 0.667969C207.125 1.11328 207.879 1.74609 208.418 2.56641C208.957 3.37891 209.242 4.33984 209.273 5.44922H205.852C205.789 4.67578 205.48 4.07031 204.926 3.63281C204.371 3.19531 203.633 2.97656 202.711 2.97656C202.117 2.97656 201.598 3.06641 201.152 3.24609C200.707 3.42578 200.363 3.67578 200.121 3.99609C199.879 4.30859 199.758 4.67188 199.758 5.08594C199.758 5.47656 199.871 5.80859 200.098 6.08203C200.324 6.34766 200.656 6.57422 201.094 6.76172C201.531 6.94922 202.059 7.11328 202.676 7.25391L204.305 7.62891C205.148 7.81641 205.898 8.05469 206.555 8.34375C207.211 8.625 207.766 8.96875 208.219 9.375C208.672 9.78125 209.016 10.2578 209.25 10.8047C209.492 11.3438 209.613 11.957 209.613 12.6445C209.613 13.7383 209.34 14.6875 208.793 15.4922C208.246 16.2891 207.461 16.9062 206.438 17.3438C205.414 17.7734 204.191 17.9883 202.77 17.9883Z" fill="#1A1A26"/>
</svg>
