<svg preserveAspectRatio="none" overflow="visible" style="display: block;" width="19.991" height="19.991" viewBox="0 0 19.991 19.991" fill="none" xmlns="http://www.w3.org/2000/svg">
<g id="atom">
<path id="Vector" d="M10.9956 9.9951C10.9956 10.5474 10.5479 10.9951 9.9956 10.9951C9.4433 10.9951 8.9956 10.5474 8.9956 9.9951C8.9956 9.4428 9.4433 8.9951 9.9956 8.9951C10.5479 8.9951 10.9956 9.4428 10.9956 9.9951ZM18.1955 18.1955C20.2355 16.1655 18.2155 10.8355 13.6955 6.29549C9.1555 1.77549 3.82549 -0.244508 1.79549 1.79549C-0.244508 3.82549 1.77549 9.1555 6.29549 13.6955C10.8355 18.2155 16.1655 20.2355 18.1955 18.1955ZM13.6955 13.6955C18.2155 9.1555 20.2355 3.82549 18.1955 1.79549C16.1655 -0.244508 10.8355 1.77549 6.29549 6.29549C1.77549 10.8355 -0.244508 16.1655 1.79549 18.1955C3.82549 20.2355 9.1555 18.2155 13.6955 13.6955Z" stroke="#0057FF" stroke-width="2" stroke-linecap="round"/>
</g>
</svg>
